<svg xmlns="http://www.w3.org/2000/svg" viewBox="0 0 980 680" role="img" aria-labelledby="title">
  <title id="title">Local velocity vector to ECEF and new frame projection</title>
  <defs>
    <marker id="arrow" markerWidth="10" markerHeight="10" refX="8" refY="3" orient="auto" markerUnits="strokeWidth">
      <path d="M0,0 L8,3 L0,6 Z" fill="#263548"/>
    </marker>
  </defs>
  <style>
    svg { background: linear-gradient(180deg, #fbfdff 0%, #f3f7fa 100%); }
    .title { fill: #16212f; font: 700 22px -apple-system, BlinkMacSystemFont, "Segoe UI", sans-serif; }
    .subtitle { fill: #5f6f7e; font: 500 13px -apple-system, BlinkMacSystemFont, "Segoe UI", sans-serif; }
    .wire { fill: none; stroke: #6aa7ad; stroke-width: 1.25; opacity: .55; }
    .equator { fill: none; stroke: #b65b13; stroke-width: 2.2; }
    .meridian { fill: none; stroke: #3d58a8; stroke-width: 2.0; }
    .axis { stroke: #263548; stroke-width: 2.4; fill: none; }
    .north { stroke: #2f62b7; stroke-width: 2.8; fill: none; }
    .east { stroke: #007c89; stroke-width: 2.8; fill: none; }
    .up { stroke: #9a4c10; stroke-width: 2.8; fill: none; }
    .down { stroke: #8f3f71; stroke-width: 2.8; fill: none; stroke-dasharray: 7 5; }
    .helper { stroke: #8292a4; stroke-width: 1.5; stroke-dasharray: 6 5; fill: none; }
    .plane { fill: #f7e7d6; opacity: .6; stroke: #b65b13; stroke-width: 1.2; }
    .point { fill: #007c89; stroke: white; stroke-width: 2.0; }
    .surface { fill: #b65b13; stroke: white; stroke-width: 2.0; }
    .label { fill: #16212f; font: 650 14px -apple-system, BlinkMacSystemFont, "Segoe UI", sans-serif; }
    .small { fill: #4b5d70; font: 500 12.5px -apple-system, BlinkMacSystemFont, "Segoe UI", sans-serif; }
    .teal { fill: #006f79; font: 650 14px -apple-system, BlinkMacSystemFont, "Segoe UI", sans-serif; }
    .orange { fill: #9a4c10; font: 650 14px -apple-system, BlinkMacSystemFont, "Segoe UI", sans-serif; }
    .indigo { fill: #314b99; font: 650 14px -apple-system, BlinkMacSystemFont, "Segoe UI", sans-serif; }
    .magenta { fill: #8f3f71; font: 650 14px -apple-system, BlinkMacSystemFont, "Segoe UI", sans-serif; }
    .formula { fill: #263548; font: 600 12px ui-monospace, SFMono-Regular, Menlo, Consolas, monospace; }
  </style>
  <rect width="100%" height="100%" fill="#fbfdff"/>
  <text class="title" x="30.0" y="38.0">生成式 3D 图：局部速度分量 → ECEF 速度向量 → 新 frame 分量</text><text class="subtitle" x="30.0" y="62.0">旧 ENU 轴给出速度分量；ECEF 向量保存真实方向；新 ENU 轴用点积重新读取分量</text><polyline class="wire" points="603.0,598.7 606.7,596.8 610.1,594.9 613.3,592.9 616.2,590.9 618.9,588.9 621.4,586.8 623.6,584.6 625.6,582.5 627.3,580.3 628.7,578.0 629.9,575.8 630.8,573.5 631.5,571.2 631.8,568.9 631.9,566.7 631.8,564.4 631.4,562.1 630.6,559.8 629.7,557.5 628.4,555.3 626.9,553.1 625.2,550.9 623.2,548.7 620.9,546.6 618.4,544.5 615.6,542.4 612.6,540.4 609.4,538.5 605.9,536.6 602.2,534.7 598.3,533.0 594.2,531.3 589.9,529.6 585.4,528.0 580.7,526.5 575.9,525.1 570.9,523.8 565.7,522.5 560.4,521.3 555.0,520.2 549.4,519.2 543.7,518.3 537.9,517.5 532.1,516.8 526.1,516.1 520.1,515.6 514.0,515.2 507.9,514.8 501.7,514.6 495.5,514.4 489.3,514.4 483.2,514.5 477.0,514.6 470.8,514.9 464.7,515.2 458.6,515.7 452.6,516.3 446.7,516.9 440.8,517.7 435.1,518.5 429.4,519.4 423.9,520.4 418.5,521.6 413.2,522.8 408.0,524.0 403.1,525.4 398.3,526.8 393.6,528.4 389.2,529.9 384.9,531.6 380.8,533.3 377.0,535.1 373.3,537.0 369.9,538.9 366.7,540.9 363.8,542.9 361.1,544.9 358.6,547.0 356.4,549.2 354.4,551.3 352.7,553.5 351.3,555.8 350.1,558.0 349.2,560.3 348.5,562.6 348.2,564.9 348.1,567.1 348.2,569.4 348.6,571.7 349.4,574.0 350.3,576.3 351.6,578.5 353.1,580.7 354.8,582.9 356.8,585.1 359.1,587.2 361.6,589.3 364.4,591.4 367.4,593.4 370.6,595.3 374.1,597.2 377.8,599.1 381.7,600.8 385.8,602.5 390.1,604.2 394.6,605.8 399.3,607.3 404.1,608.7 409.1,610.0 414.3,611.3 419.6,612.5 425.0,613.6 430.6,614.6 436.3,615.5 442.1,616.3 447.9,617.0 453.9,617.7 459.9,618.2 466.0,618.6 472.1,619.0 478.3,619.2 484.5,619.4 490.7,619.4 496.8,619.3 503.0,619.2 509.2,618.9 515.3,618.6 521.4,618.1 527.4,617.5 533.3,616.9 539.2,616.2 544.9,615.3 550.6,614.4 556.1,613.4 561.5,612.2 566.8,611.0 572.0,609.8 576.9,608.4 581.7,607.0 586.4,605.4 590.8,603.9 595.1,602.2 599.2,600.5 603.0,598.7"/><polyline class="wire" points="685.4,525.7 691.7,522.5 697.6,519.2 703.1,515.8 708.2,512.3 712.9,508.8 717.2,505.1 721.0,501.4 724.4,497.7 727.4,493.9 729.9,490.0 731.9,486.1 733.5,482.2 734.6,478.3 735.3,474.3 735.4,470.4 735.2,466.4 734.4,462.5 733.2,458.5 731.5,454.6 729.4,450.7 726.8,446.9 723.7,443.1 720.3,439.3 716.3,435.7 712.0,432.0 707.2,428.5 702.0,425.0 696.4,421.7 690.4,418.4 684.0,415.2 677.3,412.1 670.2,409.1 662.8,406.3 655.0,403.6 646.9,401.0 638.5,398.5 629.9,396.2 620.9,394.0 611.7,392.0 602.3,390.1 592.7,388.3 582.9,386.8 572.9,385.3 562.7,384.1 552.4,383.0 542.0,382.1 531.5,381.3 520.9,380.7 510.3,380.3 499.6,380.1 488.9,380.0 478.2,380.1 467.5,380.4 456.8,380.8 446.3,381.5 435.8,382.2 425.4,383.2 415.1,384.3 405.0,385.6 395.0,387.1 385.2,388.7 375.7,390.5 366.3,392.4 357.2,394.4 348.3,396.7 339.7,399.0 331.4,401.5 323.3,404.1 315.6,406.9 308.3,409.8 301.2,412.8 294.6,415.9 288.3,419.1 282.4,422.4 276.9,425.8 271.8,429.2 267.1,432.8 262.8,436.4 259.0,440.1 255.6,443.9 252.6,447.7 250.1,451.5 248.1,455.4 246.5,459.3 245.4,463.3 244.7,467.2 244.6,471.2 244.8,475.2 245.6,479.1 246.8,483.0 248.5,487.0 250.6,490.8 253.2,494.7 256.3,498.5 259.7,502.2 263.7,505.9 268.0,509.5 272.8,513.1 278.0,516.5 283.6,519.9 289.6,523.2 296.0,526.4 302.7,529.5 309.8,532.4 317.2,535.3 325.0,538.0 333.1,540.6 341.5,543.1 350.1,545.4 359.1,547.6 368.3,549.6 377.7,551.5 387.3,553.2 397.1,554.8 407.1,556.2 417.3,557.5 427.6,558.6 438.0,559.5 448.5,560.3 459.1,560.8 469.7,561.3 480.4,561.5 491.1,561.6 501.8,561.5 512.5,561.2 523.2,560.7 533.7,560.1 544.2,559.3 554.6,558.4 564.9,557.2 575.0,555.9 585.0,554.5 594.8,552.9 604.3,551.1 613.7,549.2 622.8,547.1 631.7,544.9 640.3,542.5 648.6,540.1 656.7,537.4 664.4,534.7 671.7,531.8 678.8,528.8 685.4,525.7"/><polyline class="wire" points="685.4,264.1 691.7,260.9 697.6,257.6 703.1,254.2 708.2,250.8 712.9,247.2 717.2,243.6 721.0,239.9 724.4,236.1 727.4,232.3 729.9,228.5 731.9,224.6 733.5,220.7 734.6,216.7 735.3,212.8 735.4,208.8 735.2,204.8 734.4,200.9 733.2,197.0 731.5,193.0 729.4,189.2 726.8,185.3 723.7,181.5 720.3,177.8 716.3,174.1 712.0,170.5 707.2,166.9 702.0,163.5 696.4,160.1 690.4,156.8 684.0,153.6 677.3,150.5 670.2,147.6 662.8,144.7 655.0,142.0 646.9,139.4 638.5,136.9 629.9,134.6 620.9,132.4 611.7,130.4 602.3,128.5 592.7,126.8 582.9,125.2 572.9,123.8 562.7,122.5 552.4,121.4 542.0,120.5 531.5,119.7 520.9,119.2 510.3,118.7 499.6,118.5 488.9,118.4 478.2,118.5 467.5,118.8 456.8,119.3 446.3,119.9 435.8,120.7 425.4,121.6 415.1,122.8 405.0,124.1 395.0,125.5 385.2,127.1 375.7,128.9 366.3,130.8 357.2,132.9 348.3,135.1 339.7,137.5 331.4,139.9 323.3,142.6 315.6,145.3 308.3,148.2 301.2,151.2 294.6,154.3 288.3,157.5 282.4,160.8 276.9,164.2 271.8,167.7 267.1,171.2 262.8,174.9 259.0,178.6 255.6,182.3 252.6,186.1 250.1,190.0 248.1,193.9 246.5,197.8 245.4,201.7 244.7,205.7 244.6,209.6 244.8,213.6 245.6,217.5 246.8,221.5 248.5,225.4 250.6,229.3 253.2,233.1 256.3,236.9 259.7,240.7 263.7,244.3 268.0,248.0 272.8,251.5 278.0,255.0 283.6,258.3 289.6,261.6 296.0,264.8 302.7,267.9 309.8,270.9 317.2,273.7 325.0,276.4 333.1,279.0 341.5,281.5 350.1,283.8 359.1,286.0 368.3,288.0 377.7,289.9 387.3,291.7 397.1,293.2 407.1,294.7 417.3,295.9 427.6,297.0 438.0,297.9 448.5,298.7 459.1,299.3 469.7,299.7 480.4,299.9 491.1,300.0 501.8,299.9 512.5,299.6 523.2,299.2 533.7,298.5 544.2,297.8 554.6,296.8 564.9,295.7 575.0,294.4 585.0,292.9 594.8,291.3 604.3,289.5 613.7,287.6 622.8,285.6 631.7,283.3 640.3,281.0 648.6,278.5 656.7,275.9 664.4,273.1 671.7,270.2 678.8,267.2 685.4,264.1"/><polyline class="wire" points="603.0,144.9 606.7,143.0 610.1,141.1 613.3,139.1 616.2,137.1 618.9,135.1 621.4,133.0 623.6,130.8 625.6,128.7 627.3,126.5 628.7,124.2 629.9,122.0 630.8,119.7 631.5,117.4 631.8,115.1 631.9,112.9 631.8,110.6 631.4,108.3 630.6,106.0 629.7,103.7 628.4,101.5 626.9,99.3 625.2,97.1 623.2,94.9 620.9,92.8 618.4,90.7 615.6,88.6 612.6,86.6 609.4,84.7 605.9,82.8 602.2,80.9 598.3,79.2 594.2,77.5 589.9,75.8 585.4,74.2 580.7,72.7 575.9,71.3 570.9,70.0 565.7,68.7 560.4,67.5 555.0,66.4 549.4,65.4 543.7,64.5 537.9,63.7 532.1,63.0 526.1,62.3 520.1,61.8 514.0,61.4 507.9,61.0 501.7,60.8 495.5,60.6 489.3,60.6 483.2,60.7 477.0,60.8 470.8,61.1 464.7,61.4 458.6,61.9 452.6,62.5 446.7,63.1 440.8,63.8 435.1,64.7 429.4,65.6 423.9,66.6 418.5,67.8 413.2,69.0 408.0,70.2 403.1,71.6 398.3,73.0 393.6,74.6 389.2,76.1 384.9,77.8 380.8,79.5 377.0,81.3 373.3,83.2 369.9,85.1 366.7,87.1 363.8,89.1 361.1,91.1 358.6,93.2 356.4,95.4 354.4,97.5 352.7,99.7 351.3,102.0 350.1,104.2 349.2,106.5 348.5,108.8 348.2,111.1 348.1,113.3 348.2,115.6 348.6,117.9 349.4,120.2 350.3,122.5 351.6,124.7 353.1,126.9 354.8,129.1 356.8,131.3 359.1,133.4 361.6,135.5 364.4,137.6 367.4,139.6 370.6,141.5 374.1,143.4 377.8,145.3 381.7,147.0 385.8,148.7 390.1,150.4 394.6,152.0 399.3,153.5 404.1,154.9 409.1,156.2 414.3,157.5 419.6,158.7 425.0,159.8 430.6,160.8 436.3,161.7 442.1,162.5 447.9,163.2 453.9,163.9 459.9,164.4 466.0,164.8 472.1,165.2 478.3,165.4 484.5,165.6 490.7,165.6 496.8,165.5 503.0,165.4 509.2,165.1 515.3,164.8 521.4,164.3 527.4,163.7 533.3,163.1 539.2,162.3 544.9,161.5 550.6,160.6 556.1,159.6 561.5,158.4 566.8,157.2 572.0,156.0 576.9,154.6 581.7,153.2 586.4,151.6 590.8,150.1 595.1,148.4 599.2,146.7 603.0,144.9"/><polyline class="wire" points="490.0,602.2 482.6,602.5 475.3,602.6 467.9,602.5 460.6,602.3 453.3,601.8 446.0,601.2 438.7,600.4 431.5,599.4 424.3,598.2 417.2,596.9 410.1,595.4 403.0,593.7 396.1,591.8 389.2,589.8 382.3,587.6 375.6,585.2 368.9,582.6 362.3,579.9 355.8,577.0 349.4,574.0 343.0,570.8 336.8,567.4 330.7,563.9 324.7,560.2 318.8,556.4 313.1,552.4 307.4,548.3 301.9,544.1 296.5,539.7 291.3,535.1 286.1,530.5 281.2,525.7 276.3,520.7 271.7,515.7 267.1,510.5 262.7,505.3 258.5,499.9 254.4,494.4 250.5,488.8 246.8,483.0 243.2,477.2 239.8,471.3 236.6,465.4 233.5,459.3 230.6,453.1 227.9,446.9 225.4,440.6 223.1,434.2 220.9,427.8 218.9,421.3 217.1,414.8 215.5,408.2 214.1,401.5 212.8,394.9 211.8,388.1 210.9,381.4 210.3,374.6 209.8,367.8 209.5,361.0 209.4,354.2 209.5,347.3 209.8,340.5 210.3,333.6 210.9,326.8 211.8,319.9 212.8,313.1 214.1,306.3 215.5,299.5 217.1,292.7 218.9,286.0 220.9,279.3 223.1,272.7 225.4,266.1 227.9,259.5 230.6,253.0 233.5,246.6 236.6,240.2 239.8,233.9 243.2,227.6 246.8,221.5 250.5,215.4 254.4,209.4 258.5,203.5 262.7,197.7 267.1,191.9 271.7,186.3 276.3,180.8 281.2,175.4 286.1,170.1 291.3,164.9 296.5,159.9 301.9,154.9 307.4,150.1 313.1,145.4 318.8,140.9 324.7,136.4 330.7,132.2 336.8,128.0 343.0,124.0 349.4,120.2 355.8,116.5 362.3,113.0 368.9,109.6 375.6,106.4 382.3,103.3 389.2,100.4 396.1,97.6 403.0,95.1 410.1,92.7 417.2,90.4 424.3,88.4 431.5,86.5 438.7,84.8 446.0,83.2 453.3,81.9 460.6,80.7 467.9,79.7 475.3,78.9 482.6,78.2 490.0,77.8"/><polyline class="wire" points="490.0,602.2 485.5,604.3 481.0,606.2 476.5,608.0 472.0,609.5 467.6,610.9 463.1,612.1 458.7,613.0 454.3,613.8 449.9,614.5 445.5,614.9 441.2,615.1 436.9,615.2 432.6,615.0 428.4,614.7 424.2,614.1 420.1,613.4 416.0,612.5 412.0,611.4 408.0,610.2 404.1,608.7 400.3,607.1 396.5,605.2 392.7,603.2 389.1,601.0 385.5,598.6 381.9,596.1 378.5,593.4 375.1,590.5 371.8,587.4 368.6,584.2 365.5,580.8 362.5,577.2 359.5,573.5 356.7,569.6 353.9,565.5 351.2,561.3 348.6,557.0 346.1,552.5 343.8,547.8 341.5,543.1 339.3,538.1 337.2,533.1 335.2,527.9 333.4,522.6 331.6,517.1 330.0,511.6 328.4,505.9 327.0,500.1 325.7,494.2 324.5,488.2 323.4,482.1 322.4,475.9 321.5,469.6 320.7,463.3 320.1,456.8 319.6,450.3 319.2,443.6 318.9,437.0 318.7,430.2 318.6,423.4 318.7,416.5 318.9,409.6 319.2,402.6 319.6,395.6 320.1,388.6 320.7,381.5 321.5,374.4 322.4,367.2 323.4,360.1 324.5,352.9 325.7,345.7 327.0,338.5 328.4,331.4 330.0,324.2 331.6,317.0 333.4,309.9 335.2,302.7 337.2,295.6 339.3,288.5 341.5,281.5 343.8,274.5 346.1,267.5 348.6,260.6 351.2,253.7 353.9,246.9 356.7,240.2 359.5,233.5 362.5,226.9 365.5,220.4 368.6,214.0 371.8,207.6 375.1,201.3 378.5,195.1 381.9,189.1 385.5,183.1 389.1,177.2 392.7,171.5 396.5,165.8 400.3,160.3 404.1,154.9 408.0,149.6 412.0,144.5 416.0,139.5 420.1,134.6 424.2,129.9 428.4,125.3 432.6,120.8 436.9,116.5 441.2,112.4 445.5,108.4 449.9,104.6 454.3,100.9 458.7,97.4 463.1,94.1 467.6,91.0 472.0,88.0 476.5,85.2 481.0,82.5 485.5,80.1 490.0,77.8"/><polyline class="wire" points="490.0,602.2 491.0,604.9 492.0,607.3 493.0,609.6 494.0,611.7 495.0,613.6 496.0,615.3 497.0,616.8 498.0,618.1 499.0,619.2 499.9,620.2 500.9,620.9 501.9,621.5 502.8,621.8 503.8,622.0 504.7,622.0 505.6,621.7 506.5,621.3 507.4,620.7 508.3,619.9 509.2,618.9 510.0,617.7 510.9,616.4 511.7,614.8 512.5,613.0 513.3,611.1 514.1,609.0 514.9,606.6 515.6,604.1 516.4,601.5 517.1,598.6 517.8,595.6 518.5,592.4 519.1,589.0 519.8,585.4 520.4,581.7 521.0,577.8 521.6,573.8 522.1,569.6 522.7,565.2 523.2,560.7 523.7,556.1 524.1,551.3 524.6,546.3 525.0,541.2 525.4,536.0 525.7,530.6 526.1,525.1 526.4,519.5 526.7,513.8 527.0,507.9 527.2,501.9 527.4,495.9 527.6,489.7 527.8,483.4 527.9,477.0 528.1,470.5 528.1,464.0 528.2,457.3 528.2,450.6 528.3,443.8 528.2,436.9 528.2,430.0 528.1,423.0 528.1,415.9 527.9,408.8 527.8,401.6 527.6,394.4 527.4,387.2 527.2,379.9 527.0,372.6 526.7,365.3 526.4,357.9 526.1,350.6 525.7,343.2 525.4,335.9 525.0,328.5 524.6,321.1 524.1,313.8 523.7,306.5 523.2,299.2 522.7,291.9 522.1,284.6 521.6,277.4 521.0,270.3 520.4,263.1 519.8,256.1 519.1,249.1 518.5,242.1 517.8,235.2 517.1,228.4 516.4,221.7 515.6,215.0 514.9,208.4 514.1,201.9 513.3,195.5 512.5,189.2 511.7,183.0 510.9,177.0 510.0,171.0 509.2,165.1 508.3,159.4 507.4,153.8 506.5,148.3 505.6,142.9 504.7,137.7 503.8,132.6 502.8,127.7 501.9,122.9 500.9,118.2 499.9,113.7 499.0,109.4 498.0,105.2 497.0,101.2 496.0,97.3 495.0,93.6 494.0,90.1 493.0,86.8 492.0,83.6 491.0,80.6 490.0,77.8"/><polyline class="wire" points="490.0,602.2 495.9,603.8 501.8,605.2 507.7,606.4 513.6,607.4 519.5,608.3 525.4,608.9 531.2,609.4 537.0,609.7 542.8,609.8 548.5,609.7 554.2,609.4 559.9,609.0 565.5,608.3 571.0,607.5 576.5,606.5 582.0,605.3 587.3,603.9 592.6,602.3 597.9,600.6 603.0,598.7 608.1,596.6 613.1,594.3 618.0,591.8 622.8,589.2 627.5,586.4 632.2,583.5 636.7,580.4 641.1,577.1 645.5,573.6 649.7,570.0 653.8,566.2 657.8,562.3 661.7,558.2 665.4,554.0 669.1,549.6 672.6,545.1 676.0,540.5 679.3,535.7 682.4,530.8 685.4,525.7 688.3,520.5 691.0,515.2 693.6,509.8 696.1,504.3 698.4,498.6 700.6,492.9 702.6,487.0 704.5,481.1 706.2,475.0 707.8,468.9 709.3,462.7 710.6,456.3 711.7,450.0 712.7,443.5 713.5,437.0 714.2,430.3 714.8,423.7 715.2,417.0 715.4,410.2 715.5,403.4 715.4,396.5 715.2,389.6 714.8,382.7 714.2,375.7 713.5,368.7 712.7,361.7 711.7,354.7 710.6,347.7 709.3,340.6 707.8,333.6 706.2,326.5 704.5,319.5 702.6,312.5 700.6,305.5 698.4,298.5 696.1,291.6 693.6,284.7 691.0,277.8 688.3,270.9 685.4,264.1 682.4,257.4 679.3,250.7 676.0,244.1 672.6,237.5 669.1,231.0 665.4,224.6 661.7,218.3 657.8,212.0 653.8,205.9 649.7,199.8 645.5,193.8 641.1,187.9 636.7,182.1 632.2,176.4 627.5,170.9 622.8,165.4 618.0,160.1 613.1,154.9 608.1,149.8 603.0,144.9 597.9,140.0 592.6,135.4 587.3,130.8 582.0,126.4 576.5,122.2 571.0,118.1 565.5,114.1 559.9,110.3 554.2,106.7 548.5,103.2 542.8,99.9 537.0,96.8 531.2,93.8 525.4,91.0 519.5,88.3 513.6,85.9 507.7,83.6 501.8,81.5 495.9,79.5 490.0,77.8"/><polyline class="wire" points="490.0,602.2 497.4,601.8 504.7,601.1 512.1,600.3 519.4,599.3 526.7,598.1 534.0,596.8 541.3,595.2 548.5,593.5 555.7,591.6 562.8,589.6 569.9,587.3 577.0,584.9 583.9,582.4 590.8,579.6 597.7,576.7 604.4,573.6 611.1,570.4 617.7,567.0 624.2,563.5 630.6,559.8 637.0,556.0 643.2,552.0 649.3,547.8 655.3,543.6 661.2,539.1 666.9,534.6 672.6,529.9 678.1,525.1 683.5,520.1 688.7,515.1 693.9,509.9 698.8,504.6 703.7,499.2 708.3,493.7 712.9,488.1 717.3,482.3 721.5,476.5 725.6,470.6 729.5,464.6 733.2,458.5 736.8,452.4 740.2,446.1 743.4,439.8 746.5,433.4 749.4,427.0 752.1,420.5 754.6,413.9 756.9,407.3 759.1,400.7 761.1,394.0 762.9,387.3 764.5,380.5 765.9,373.7 767.2,366.9 768.2,360.1 769.1,353.2 769.7,346.4 770.2,339.5 770.5,332.7 770.6,325.8 770.5,319.0 770.2,312.2 769.7,305.4 769.1,298.6 768.2,291.9 767.2,285.1 765.9,278.5 764.5,271.8 762.9,265.2 761.1,258.7 759.1,252.2 756.9,245.8 754.6,239.4 752.1,233.1 749.4,226.9 746.5,220.7 743.4,214.6 740.2,208.7 736.8,202.8 733.2,197.0 729.5,191.2 725.6,185.6 721.5,180.1 717.3,174.7 712.9,169.5 708.3,164.3 703.7,159.3 698.8,154.3 693.9,149.5 688.7,144.9 683.5,140.3 678.1,135.9 672.6,131.7 666.9,127.6 661.2,123.6 655.3,119.8 649.3,116.1 643.2,112.6 637.0,109.2 630.6,106.0 624.2,103.0 617.7,100.1 611.1,97.4 604.4,94.8 597.7,92.4 590.8,90.2 583.9,88.2 577.0,86.3 569.9,84.6 562.8,83.1 555.7,81.8 548.5,80.6 541.3,79.6 534.0,78.8 526.7,78.2 519.4,77.7 512.1,77.5 504.7,77.4 497.4,77.5 490.0,77.8"/><polyline class="wire" points="490.0,602.2 494.5,599.9 499.0,597.5 503.5,594.8 508.0,592.0 512.4,589.0 516.9,585.9 521.3,582.6 525.7,579.1 530.1,575.4 534.5,571.6 538.8,567.6 543.1,563.5 547.4,559.2 551.6,554.7 555.8,550.1 559.9,545.4 564.0,540.5 568.0,535.5 572.0,530.4 575.9,525.1 579.7,519.7 583.5,514.2 587.3,508.5 590.9,502.8 594.5,496.9 598.1,490.9 601.5,484.9 604.9,478.7 608.2,472.4 611.4,466.0 614.5,459.6 617.5,453.1 620.5,446.5 623.3,439.8 626.1,433.1 628.8,426.3 631.4,419.4 633.9,412.5 636.2,405.5 638.5,398.5 640.7,391.5 642.8,384.4 644.8,377.3 646.6,370.1 648.4,363.0 650.0,355.8 651.6,348.6 653.0,341.5 654.3,334.3 655.5,327.1 656.6,319.9 657.6,312.8 658.5,305.6 659.3,298.5 659.9,291.4 660.4,284.4 660.8,277.4 661.1,270.4 661.3,263.5 661.4,256.6 661.3,249.8 661.1,243.0 660.8,236.4 660.4,229.7 659.9,223.2 659.3,216.7 658.5,210.4 657.6,204.1 656.6,197.9 655.5,191.8 654.3,185.8 653.0,179.9 651.6,174.1 650.0,168.4 648.4,162.9 646.6,157.4 644.8,152.1 642.8,146.9 640.7,141.9 638.5,136.9 636.2,132.2 633.9,127.5 631.4,123.0 628.8,118.7 626.1,114.5 623.3,110.4 620.5,106.5 617.5,102.8 614.5,99.2 611.4,95.8 608.2,92.6 604.9,89.5 601.5,86.6 598.1,83.9 594.5,81.4 590.9,79.0 587.3,76.8 583.5,74.8 579.7,72.9 575.9,71.3 572.0,69.8 568.0,68.6 564.0,67.5 559.9,66.6 555.8,65.9 551.6,65.3 547.4,65.0 543.1,64.8 538.8,64.9 534.5,65.1 530.1,65.5 525.7,66.2 521.3,67.0 516.9,67.9 512.4,69.1 508.0,70.5 503.5,72.0 499.0,73.8 494.5,75.7 490.0,77.8"/><polyline class="wire" points="490.0,602.2 489.0,599.4 488.0,596.4 487.0,593.2 486.0,589.9 485.0,586.4 484.0,582.7 483.0,578.8 482.0,574.8 481.0,570.6 480.1,566.3 479.1,561.8 478.1,557.1 477.2,552.3 476.2,547.4 475.3,542.3 474.4,537.1 473.5,531.7 472.6,526.2 471.7,520.6 470.8,514.9 470.0,509.0 469.1,503.0 468.3,497.0 467.5,490.8 466.7,484.5 465.9,478.1 465.1,471.6 464.4,465.0 463.6,458.3 462.9,451.6 462.2,444.8 461.5,437.9 460.9,430.9 460.2,423.9 459.6,416.9 459.0,409.7 458.4,402.6 457.9,395.4 457.3,388.1 456.8,380.8 456.3,373.5 455.9,366.2 455.4,358.9 455.0,351.5 454.6,344.1 454.3,336.8 453.9,329.4 453.6,322.1 453.3,314.7 453.0,307.4 452.8,300.1 452.6,292.8 452.4,285.6 452.2,278.4 452.1,271.2 451.9,264.1 451.9,257.0 451.8,250.0 451.8,243.1 451.7,236.2 451.8,229.4 451.8,222.7 451.9,216.0 451.9,209.5 452.1,203.0 452.2,196.6 452.4,190.3 452.6,184.1 452.8,178.1 453.0,172.1 453.3,166.2 453.6,160.5 453.9,154.9 454.3,149.4 454.6,144.0 455.0,138.8 455.4,133.7 455.9,128.7 456.3,123.9 456.8,119.3 457.3,114.8 457.9,110.4 458.4,106.2 459.0,102.2 459.6,98.3 460.2,94.6 460.9,91.0 461.5,87.6 462.2,84.4 462.9,81.4 463.6,78.5 464.4,75.9 465.1,73.4 465.9,71.0 466.7,68.9 467.5,67.0 468.3,65.2 469.1,63.6 470.0,62.3 470.8,61.1 471.7,60.1 472.6,59.3 473.5,58.7 474.4,58.3 475.3,58.0 476.2,58.0 477.2,58.2 478.1,58.5 479.1,59.1 480.1,59.8 481.0,60.8 482.0,61.9 483.0,63.2 484.0,64.7 485.0,66.4 486.0,68.3 487.0,70.4 488.0,72.7 489.0,75.1 490.0,77.8"/><polyline class="equator" points="715.5,403.4 722.7,399.7 729.5,395.9 735.9,391.9 741.8,387.9 747.2,383.8 752.1,379.6 756.6,375.4 760.5,371.0 763.9,366.6 766.8,362.2 769.1,357.7 770.9,353.2 772.2,348.6 773.0,344.1 773.2,339.5 772.9,334.9 772.0,330.4 770.6,325.8 768.7,321.3 766.2,316.9 763.2,312.4 759.7,308.0 755.7,303.7 751.1,299.5 746.1,295.3 740.6,291.2 734.6,287.2 728.1,283.3 721.2,279.5 713.9,275.9 706.1,272.3 697.9,268.9 689.3,265.6 680.3,262.5 671.0,259.5 661.4,256.6 651.4,253.9 641.0,251.4 630.5,249.1 619.6,246.9 608.5,244.9 597.2,243.1 585.6,241.4 573.9,240.0 562.0,238.7 550.0,237.6 537.9,236.8 525.7,236.1 513.4,235.6 501.0,235.3 488.7,235.3 476.3,235.4 464.0,235.7 451.7,236.2 439.5,236.9 427.4,237.9 415.4,239.0 403.6,240.3 391.9,241.7 380.4,243.4 369.1,245.3 358.1,247.3 347.3,249.5 336.7,251.9 326.5,254.5 316.6,257.2 307.0,260.1 297.7,263.1 288.8,266.3 280.3,269.6 272.2,273.0 264.5,276.6 257.3,280.3 250.5,284.1 244.1,288.1 238.2,292.1 232.8,296.2 227.9,300.4 223.4,304.6 219.5,309.0 216.1,313.4 213.2,317.8 210.9,322.3 209.1,326.8 207.8,331.4 207.0,335.9 206.8,340.5 207.1,345.1 208.0,349.6 209.4,354.2 211.3,358.7 213.8,363.1 216.8,367.6 220.3,372.0 224.3,376.3 228.9,380.5 233.9,384.7 239.4,388.8 245.4,392.8 251.9,396.7 258.8,400.5 266.1,404.1 273.9,407.7 282.1,411.1 290.7,414.4 299.7,417.5 309.0,420.5 318.6,423.4 328.6,426.1 339.0,428.6 349.5,430.9 360.4,433.1 371.5,435.1 382.8,436.9 394.4,438.6 406.1,440.0 418.0,441.3 430.0,442.4 442.1,443.2 454.3,443.9 466.6,444.4 479.0,444.7 491.3,444.7 503.7,444.6 516.0,444.3 528.3,443.8 540.5,443.1 552.6,442.1 564.6,441.0 576.4,439.7 588.1,438.3 599.6,436.6 610.9,434.7 621.9,432.7 632.7,430.5 643.3,428.1 653.5,425.5 663.4,422.8 673.0,419.9 682.3,416.9 691.2,413.7 699.7,410.4 707.8,407.0 715.5,403.4"/><polyline class="meridian" points="490.0,602.2 495.9,603.8 501.8,605.2 507.7,606.4 513.6,607.4 519.5,608.3 525.4,608.9 531.2,609.4 537.0,609.7 542.8,609.8 548.5,609.7 554.2,609.4 559.9,609.0 565.5,608.3 571.0,607.5 576.5,606.5 582.0,605.3 587.3,603.9 592.6,602.3 597.9,600.6 603.0,598.7 608.1,596.6 613.1,594.3 618.0,591.8 622.8,589.2 627.5,586.4 632.2,583.5 636.7,580.4 641.1,577.1 645.5,573.6 649.7,570.0 653.8,566.2 657.8,562.3 661.7,558.2 665.4,554.0 669.1,549.6 672.6,545.1 676.0,540.5 679.3,535.7 682.4,530.8 685.4,525.7 688.3,520.5 691.0,515.2 693.6,509.8 696.1,504.3 698.4,498.6 700.6,492.9 702.6,487.0 704.5,481.1 706.2,475.0 707.8,468.9 709.3,462.7 710.6,456.3 711.7,450.0 712.7,443.5 713.5,437.0 714.2,430.3 714.8,423.7 715.2,417.0 715.4,410.2 715.5,403.4 715.4,396.5 715.2,389.6 714.8,382.7 714.2,375.7 713.5,368.7 712.7,361.7 711.7,354.7 710.6,347.7 709.3,340.6 707.8,333.6 706.2,326.5 704.5,319.5 702.6,312.5 700.6,305.5 698.4,298.5 696.1,291.6 693.6,284.7 691.0,277.8 688.3,270.9 685.4,264.1 682.4,257.4 679.3,250.7 676.0,244.1 672.6,237.5 669.1,231.0 665.4,224.6 661.7,218.3 657.8,212.0 653.8,205.9 649.7,199.8 645.5,193.8 641.1,187.9 636.7,182.1 632.2,176.4 627.5,170.9 622.8,165.4 618.0,160.1 613.1,154.9 608.1,149.8 603.0,144.9 597.9,140.0 592.6,135.4 587.3,130.8 582.0,126.4 576.5,122.2 571.0,118.1 565.5,114.1 559.9,110.3 554.2,106.7 548.5,103.2 542.8,99.9 537.0,96.8 531.2,93.8 525.4,91.0 519.5,88.3 513.6,85.9 507.7,83.6 501.8,81.5 495.9,79.5 490.0,77.8"/><polyline class="meridian" points="490.0,602.2 483.0,603.1 476.0,603.7 469.0,604.2 462.0,604.5 455.1,604.6 448.1,604.5 441.2,604.2 434.3,603.8 427.5,603.2 420.7,602.3 414.0,601.4 407.3,600.2 400.7,598.8 394.1,597.3 387.6,595.6 381.2,593.7 374.8,591.7 368.5,589.5 362.4,587.1 356.3,584.5 350.3,581.8 344.3,578.9 338.5,575.8 332.8,572.6 327.2,569.2 321.8,565.6 316.4,562.0 311.1,558.1 306.0,554.1 301.0,550.0 296.2,545.7 291.4,541.3 286.8,536.7 282.4,532.0 278.1,527.2 273.9,522.2 269.9,517.1 266.0,511.9 262.3,506.6 258.7,501.2 255.3,495.7 252.1,490.0 249.0,484.3 246.1,478.4 243.4,472.5 240.8,466.5 238.4,460.4 236.2,454.2 234.1,447.9 232.2,441.6 230.5,435.2 229.0,428.7 227.6,422.1 226.5,415.6 225.5,408.9 224.6,402.2 224.0,395.5 223.6,388.7 223.3,381.9 223.2,375.1 223.3,368.2 223.6,361.4 224.0,354.5 224.6,347.6 225.5,340.7 226.5,333.8 227.6,326.9 229.0,320.0 230.5,313.1 232.2,306.3 234.1,299.4 236.2,292.6 238.4,285.8 240.8,279.1 243.4,272.4 246.1,265.7 249.0,259.1 252.1,252.6 255.3,246.1 258.7,239.6 262.3,233.3 266.0,227.0 269.9,220.8 273.9,214.6 278.1,208.6 282.4,202.6 286.8,196.8 291.4,191.0 296.2,185.3 301.0,179.8 306.0,174.3 311.1,169.0 316.4,163.7 321.8,158.6 327.2,153.6 332.8,148.8 338.5,144.1 344.3,139.5 350.3,135.0 356.3,130.7 362.4,126.5 368.5,122.5 374.8,118.6 381.2,114.9 387.6,111.3 394.1,107.9 400.7,104.7 407.3,101.6 414.0,98.6 420.7,95.9 427.5,93.3 434.3,90.9 441.2,88.6 448.1,86.5 455.1,84.6 462.0,82.9 469.0,81.4 476.0,80.0 483.0,78.8 490.0,77.8"/><line class="helper" x1="303.1" y1="152.4" x2="337.4" y2="135.4"/><line class="east" x1="303.1" y1="152.4" x2="329.7" y2="180.1" marker-end="url(#arrow)"/><line class="north" x1="303.1" y1="152.4" x2="359.6" y2="96.9" marker-end="url(#arrow)"/><line class="up" x1="303.1" y1="152.4" x2="261.3" y2="110.2" marker-end="url(#arrow)"/><line class="east" x1="337.4" y1="135.4" x2="370.5" y2="158.6" marker-end="url(#arrow)"/><line class="north" x1="337.4" y1="135.4" x2="389.1" y2="88.3" marker-end="url(#arrow)"/><line class="up" x1="337.4" y1="135.4" x2="306.4" y2="93.6" marker-end="url(#arrow)"/><line class="helper" x1="303.1" y1="152.4" x2="384.6" y2="134.3"/><line class="up" x1="384.6" y1="134.3" x2="368.1" y2="117.6" marker-end="url(#arrow)"/><line class="axis" x1="303.1" y1="152.4" x2="368.1" y2="117.6" marker-end="url(#arrow)"/><circle class="surface" cx="303.1" cy="152.4" r="6.5"/><circle class="point" cx="337.4" cy="135.4" r="6.5"/><text class="orange" x="261.1" y="192.4">P_k</text><text class="teal" x="361.4" y="117.4">P_{k+1}</text><text class="label" x="424.1" y="103.6">v_ECEF</text><text class="small" x="408.6" y="158.3">horizontal V cosγ</text><text class="orange" x="394.4" y="121.9">v_U</text><text class="orange" x="60.0" y="104.0">P_k: 旧 origin，使用旧 ê_k,n̂_k,û_k</text><text class="teal" x="610.0" y="104.0">P_{k+1}: 新 origin，重新构造新 ê,n̂,û</text><text class="small" x="522.0" y="140.0">v_ECEF 是同一个物理速度向量，不随坐标轴一起旋转</text><text class="formula" x="44.0" y="572.0">旧 frame 分量：v_E=V cosγ cosψ,  v_N=V cosγ sinψ,  v_U=V sinγ</text><text class="formula" x="44.0" y="600.0">换到 ECEF：v_ECEF = v_E ê_k + v_N n̂_k + v_U û_k</text><text class="formula" x="44.0" y="628.0">投影到新 frame：v_E&#x27; = v_ECEF·ê_{k+1},  v_N&#x27; = v_ECEF·n̂_{k+1},  v_U&#x27; = v_ECEF·û_{k+1}</text><text class="formula" x="44.0" y="656.0">再由 v_E&#x27;,v_N&#x27;,v_U&#x27; 反算 V、ψ、γ；这一步处理的是坐标轴旋转，不是空气动力学。</text>
</svg>
