<svg xmlns="http://www.w3.org/2000/svg" width="800" height="535" viewBox="0 30 800 535" font-family="Heiti SC, STHeiti, Helvetica, sans-serif"><defs><marker id="arrow" viewBox="0 0 10 10" refX="9" refY="5" markerWidth="7" markerHeight="7" orient="auto-start-reverse"><path d="M0,0 L10,5 L0,10 z" fill="#222222"/></marker><marker id="arrow-dash" viewBox="0 0 10 10" refX="9" refY="5" markerWidth="7" markerHeight="7" orient="auto-start-reverse"><path d="M0,0 L10,5 L0,10 z" fill="#555555"/></marker></defs><rect y="30" width="800" height="535" fill="white"/><rect x="5" y="40" width="180" height="480" rx="8" fill="#f4f5f6" stroke="#b8bec3" stroke-width="1.4"/><text x="15" y="62" font-size="12.5" text-anchor="start" fill="#555555" font-weight="bold">离线：数据 → 语言</text><rect x="200" y="40" width="585" height="320" rx="8" fill="#f4f5f6" stroke="#b8bec3" stroke-width="1.4"/><text x="215" y="62" font-size="12.5" text-anchor="start" fill="#555555" font-weight="bold">闭环：两层生成</text><rect x="200" y="395" width="585" height="125" rx="8" fill="#f4f5f6" stroke="#b8bec3" stroke-width="1.4"/><text x="215" y="415" font-size="12.5" text-anchor="start" fill="#555555" font-weight="bold">先验的训练</text><rect x="15" y="78" width="160" height="58" rx="8" fill="#eceff1" stroke="#5f6b73" stroke-width="1.4"/><text x="95.0" y="102.5" font-size="13.5" text-anchor="middle" fill="#222222" font-weight="bold">观测进场航迹</text><text x="95.0" y="119.5" font-size="12" text-anchor="middle" fill="#555555">ADS-B 进近轨迹</text><rect x="15" y="168" width="160" height="58" rx="8" fill="#eceff1" stroke="#5f6b73" stroke-width="1.4"/><text x="95.0" y="186.0" font-size="13.5" text-anchor="middle" fill="#222222" font-weight="bold">标注器</text><text x="95.0" y="201.0" font-size="10.5" text-anchor="middle" fill="#555555">航迹 → 指令词，再与执行器</text><text x="95.0" y="216.0" font-size="10.5" text-anchor="middle" fill="#555555">闭环飞行并加纠正词</text><rect x="15" y="262" width="160" height="238" rx="8" fill="#eceff1" stroke="#5f6b73" stroke-width="1.4"/><text x="95" y="283" font-size="13" text-anchor="middle" fill="#222222" font-weight="bold">指令句子</text><text x="95" y="299" font-size="11.5" text-anchor="middle" fill="#555555">每 4 s 一行，五列词</text><rect x="21" y="310" width="148" height="34" rx="5" fill="white" stroke="#5f6b73" stroke-width="1"/><text x="95" y="325" font-size="12" text-anchor="middle" fill="#222222" font-weight="bold">跑道</text><text x="95" y="338" font-size="10" text-anchor="middle" fill="#555555">候选跑道 · 复飞</text><rect x="21" y="348" width="148" height="34" rx="5" fill="white" stroke="#5f6b73" stroke-width="1"/><text x="95" y="363" font-size="12" text-anchor="middle" fill="#222222" font-weight="bold">航向</text><text x="95" y="376" font-size="10" text-anchor="middle" fill="#555555">5° 格，相对跑道方向</text><rect x="21" y="386" width="148" height="34" rx="5" fill="white" stroke="#5f6b73" stroke-width="1"/><text x="95" y="401" font-size="12" text-anchor="middle" fill="#222222" font-weight="bold">高度</text><text x="95" y="414" font-size="10" text-anchor="middle" fill="#555555">40 级 · 不改平</text><rect x="21" y="424" width="148" height="34" rx="5" fill="white" stroke="#5f6b73" stroke-width="1"/><text x="95" y="439" font-size="12" text-anchor="middle" fill="#222222" font-weight="bold">下降角</text><text x="95" y="452" font-size="10" text-anchor="middle" fill="#555555">平飞 · 下降 1–4 · 爬升</text><rect x="21" y="462" width="148" height="34" rx="5" fill="white" stroke="#5f6b73" stroke-width="1"/><text x="95" y="477" font-size="12" text-anchor="middle" fill="#222222" font-weight="bold">速度</text><text x="95" y="490" font-size="10" text-anchor="middle" fill="#555555">5 m/s 格 · 未指定</text><polyline points="95,136 95,168" fill="none" stroke="#222222" stroke-width="1.8" marker-end="url(#arrow)" stroke-linejoin="round"/><polyline points="95,226 95,262" fill="none" stroke="#222222" stroke-width="1.8" marker-end="url(#arrow)" stroke-linejoin="round"/><rect x="215" y="74" width="170" height="56" rx="8" fill="#eceff1" stroke="#5f6b73" stroke-width="1.4"/><text x="300.0" y="91.0" font-size="12.5" text-anchor="middle" fill="#222222" font-weight="bold">输入</text><text x="300.0" y="106.0" font-size="11.5" text-anchor="middle" fill="#555555">自身状态、跑道坐标系、</text><text x="300.0" y="121.0" font-size="11.5" text-anchor="middle" fill="#555555">落地情况、其他飞机</text><rect x="215" y="152" width="170" height="104" rx="8" fill="#d9e7f7" stroke="#2f5f98" stroke-width="1.4"/><text x="300.0" y="191.0" font-size="13.5" text-anchor="middle" fill="#222222" font-weight="bold">上层 · 先验</text><text x="300.0" y="208.0" font-size="12" text-anchor="middle" fill="#555555">自回归 Transformer</text><text x="300.0" y="225.0" font-size="12" text-anchor="middle" fill="#555555">每 4 s 说一行指令</text><rect x="430" y="160" width="120" height="88" rx="8" fill="#fff3c4" stroke="#9c8200" stroke-width="1.4"/><text x="490.0" y="184.0" font-size="12.5" text-anchor="middle" fill="#222222" font-weight="bold">解码屏蔽</text><text x="490.0" y="200.0" font-size="11.5" text-anchor="middle" fill="#555555">语法规则</text><text x="490.0" y="216.0" font-size="11.5" text-anchor="middle" fill="#555555">程序屏蔽</text><text x="490.0" y="232.0" font-size="11.5" text-anchor="middle" fill="#555555">间隔</text><rect x="595" y="152" width="170" height="104" rx="8" fill="#fbe6cc" stroke="#b4661a" stroke-width="1.4"/><text x="680.0" y="181.0" font-size="13.5" text-anchor="middle" fill="#222222" font-weight="bold">下层 · 执行器</text><text x="680.0" y="199.0" font-size="12" text-anchor="middle" fill="#555555">规则自动驾驶</text><text x="680.0" y="217.0" font-size="12" text-anchor="middle" fill="#555555">点质量动力学</text><text x="680.0" y="235.0" font-size="12" text-anchor="middle" fill="#555555">每 1 s 飞一步</text><rect x="550" y="292" width="215" height="54" rx="8" fill="#e1f0de" stroke="#3f7a3a" stroke-width="1.4"/><text x="657.5" y="314.5" font-size="13.5" text-anchor="middle" fill="#222222" font-weight="bold">飞行状态</text><text x="657.5" y="331.5" font-size="12" text-anchor="middle" fill="#555555">4D 轨迹</text><polyline points="300,130 300,152" fill="none" stroke="#222222" stroke-width="1.8" marker-end="url(#arrow)" stroke-linejoin="round"/><polyline points="385,204 430,204" fill="none" stroke="#222222" stroke-width="1.8" marker-end="url(#arrow)" stroke-linejoin="round"/><polyline points="550,204 595,204" fill="none" stroke="#222222" stroke-width="1.8" marker-end="url(#arrow)" stroke-linejoin="round"/><polyline points="680,256 680,292" fill="none" stroke="#222222" stroke-width="1.8" marker-end="url(#arrow)" stroke-linejoin="round"/><polyline points="550,319 300,319 300,256" fill="none" stroke="#222222" stroke-width="1.8" marker-end="url(#arrow)" stroke-linejoin="round"/><text x="425" y="311" font-size="11.5" text-anchor="middle" fill="#555555" font-style="italic">状态反馈</text><text x="490" y="128" font-size="12" text-anchor="middle" fill="#2f5f98" font-weight="bold">指令词</text><text x="490" y="143" font-size="11" text-anchor="middle" fill="#555555" font-style="italic">两层之间唯一的接口</text><rect x="215" y="430" width="170" height="76" rx="8" fill="#eef3fa" stroke="#2f5f98" stroke-width="1.4"/><text x="300.0" y="456.0" font-size="13" text-anchor="middle" fill="#222222" font-weight="bold">① 预训练</text><text x="300.0" y="472.0" font-size="11.5" text-anchor="middle" fill="#555555">teacher forcing，</text><text x="300.0" y="488.0" font-size="11.5" text-anchor="middle" fill="#555555">闭环句子</text><rect x="407" y="430" width="170" height="76" rx="8" fill="#eef3fa" stroke="#2f5f98" stroke-width="1.4"/><text x="492.0" y="456.0" font-size="13" text-anchor="middle" fill="#222222" font-weight="bold">② 后训练</text><text x="492.0" y="472.0" font-size="11.5" text-anchor="middle" fill="#555555">闭环落地奖励、</text><text x="492.0" y="488.0" font-size="11.5" text-anchor="middle" fill="#555555">分支训练</text><rect x="599" y="430" width="170" height="76" rx="8" fill="#eef3fa" stroke="#2f5f98" stroke-width="1.4"/><text x="684.0" y="456.0" font-size="13" text-anchor="middle" fill="#222222" font-weight="bold">③ 多机</text><text x="684.0" y="472.0" font-size="11.5" text-anchor="middle" fill="#555555">交通窗口、</text><text x="684.0" y="488.0" font-size="11.5" text-anchor="middle" fill="#555555">间隔</text><polyline points="385,468 407,468" fill="none" stroke="#222222" stroke-width="1.5" marker-end="url(#arrow)" stroke-linejoin="round"/><polyline points="577,468 599,468" fill="none" stroke="#222222" stroke-width="1.5" marker-end="url(#arrow)" stroke-linejoin="round"/><polyline points="175,468 215,468" fill="none" stroke="#222222" stroke-width="1.8" marker-end="url(#arrow)" stroke-linejoin="round"/><polyline points="250,430 250,256" fill="none" stroke="#222222" stroke-width="1.8" stroke-dasharray="5 4" marker-end="url(#arrow-dash)" stroke-linejoin="round"/><text x="258" y="384" font-size="11.5" text-anchor="start" fill="#555555" font-style="italic">训练</text><polyline points="565,346 565,430" fill="none" stroke="#222222" stroke-width="1.8" stroke-dasharray="5 4" marker-end="url(#arrow-dash)" stroke-linejoin="round"/><text x="573" y="384" font-size="11.5" text-anchor="start" fill="#555555" font-style="italic">落地结果</text><rect x="15" y="538" width="16" height="12" rx="3" fill="#eceff1" stroke="#5f6b73" stroke-width="1.2"/><text x="37" y="548" font-size="11.5" text-anchor="start" fill="#555555">数据 / 语言</text><rect x="143" y="538" width="16" height="12" rx="3" fill="#d9e7f7" stroke="#2f5f98" stroke-width="1.2"/><text x="165" y="548" font-size="11.5" text-anchor="start" fill="#555555">学习得到</text><rect x="235" y="538" width="16" height="12" rx="3" fill="#fbe6cc" stroke="#b4661a" stroke-width="1.2"/><text x="257" y="548" font-size="11.5" text-anchor="start" fill="#555555">规则 / 物理</text><rect x="363" y="538" width="16" height="12" rx="3" fill="#fff3c4" stroke="#9c8200" stroke-width="1.2"/><text x="385" y="548" font-size="11.5" text-anchor="start" fill="#555555">解码时检查</text></svg>