<svg xmlns="http://www.w3.org/2000/svg" viewBox="0 0 940 640" role="img" aria-labelledby="title">
  <title id="title">WGS 84 geodetic to local tangent ENU</title>
  <defs>
    <marker id="arrow" markerWidth="10" markerHeight="10" refX="8" refY="3" orient="auto" markerUnits="strokeWidth">
      <path d="M0,0 L8,3 L0,6 Z" fill="#263548"/>
    </marker>
  </defs>
  <style>
    svg { background: linear-gradient(180deg, #fbfdff 0%, #f3f7fa 100%); }
    .title { fill: #16212f; font: 700 22px -apple-system, BlinkMacSystemFont, "Segoe UI", sans-serif; }
    .subtitle { fill: #5f6f7e; font: 500 13px -apple-system, BlinkMacSystemFont, "Segoe UI", sans-serif; }
    .wire { fill: none; stroke: #6aa7ad; stroke-width: 1.3; opacity: .58; }
    .equator { fill: none; stroke: #b65b13; stroke-width: 2.2; }
    .meridian { fill: none; stroke: #3d58a8; stroke-width: 2.0; }
    .axis { stroke: #263548; stroke-width: 2.4; }
    .vector { stroke: #3d58a8; stroke-width: 2.4; fill: none; }
    .normal { stroke: #b65b13; stroke-width: 2.7; fill: none; }
    .helper { stroke: #8292a4; stroke-width: 1.5; stroke-dasharray: 6 5; fill: none; }
.component { stroke: #007c89; stroke-width: 2.4; fill: none; }
.east { stroke: #007c89; stroke-width: 2.7; fill: none; }
.north { stroke: #3d58a8; stroke-width: 2.7; fill: none; }
.curvature { fill: none; stroke: #b65b13; stroke-width: 1.8; stroke-dasharray: 7 5; }
.plane { fill: #f7e7d6; opacity: .62; stroke: #b65b13; stroke-width: 1.2; }
    .point { fill: #007c89; stroke: white; stroke-width: 2.0; }
    .surface { fill: #b65b13; stroke: white; stroke-width: 2.0; }
    .label { fill: #16212f; font: 650 14px -apple-system, BlinkMacSystemFont, "Segoe UI", sans-serif; }
    .small { fill: #4b5d70; font: 500 12.5px -apple-system, BlinkMacSystemFont, "Segoe UI", sans-serif; }
    .teal { fill: #006f79; font: 650 14px -apple-system, BlinkMacSystemFont, "Segoe UI", sans-serif; }
    .orange { fill: #9a4c10; font: 650 14px -apple-system, BlinkMacSystemFont, "Segoe UI", sans-serif; }
    .indigo { fill: #314b99; font: 650 14px -apple-system, BlinkMacSystemFont, "Segoe UI", sans-serif; }
    .formula { fill: #263548; font: 600 12px ui-monospace, SFMono-Regular, Menlo, Consolas, monospace; }
  </style>
  <text class="title" x="30.0" y="36.0">生成式 3D 坐标变换：WGS 84 → 本地切平面 ENU</text><text class="subtitle" x="30.0" y="58.0">O_L 为本地原点；east/north/up 由 φ₀、λ₀ 精确计算；局部偏移为可视化放大</text><polyline class="wire" points="548.3,574.3 551.3,572.6 554.2,570.8 556.8,568.9 559.2,567.0 561.4,565.1 563.4,563.1 565.1,561.1 566.7,559.1 568.0,557.1 569.1,555.0 569.9,552.9 570.5,550.8 570.9,548.7 571.1,546.6 571.0,544.5 570.6,542.4 570.1,540.3 569.3,538.2 568.3,536.1 567.0,534.1 565.5,532.0 563.8,530.0 561.9,528.1 559.8,526.1 557.4,524.2 554.8,522.4 552.1,520.6 549.1,518.8 545.9,517.1 542.6,515.4 539.0,513.9 535.3,512.3 531.4,510.9 527.4,509.5 523.2,508.1 518.9,506.9 514.4,505.7 509.8,504.6 505.1,503.6 500.3,502.6 495.3,501.7 490.3,501.0 485.2,500.3 480.1,499.7 474.8,499.2 469.5,498.7 464.2,498.4 458.8,498.2 453.5,498.0 448.1,498.0 442.7,498.0 437.3,498.1 431.9,498.3 426.6,498.7 421.3,499.1 416.0,499.5 410.8,500.1 405.7,500.8 400.7,501.5 395.7,502.4 390.9,503.3 386.1,504.3 381.5,505.4 377.0,506.6 372.6,507.8 368.4,509.1 364.3,510.5 360.4,511.9 356.7,513.5 353.1,515.0 349.7,516.7 346.5,518.4 343.5,520.1 340.6,521.9 338.0,523.8 335.6,525.7 333.4,527.6 331.4,529.5 329.7,531.5 328.1,533.6 326.8,535.6 325.7,537.7 324.9,539.8 324.3,541.9 323.9,544.0 323.7,546.1 323.8,548.2 324.1,550.3 324.7,552.4 325.5,554.5 326.5,556.6 327.8,558.6 329.3,560.6 331.0,562.6 332.9,564.6 335.0,566.5 337.4,568.4 340.0,570.3 342.7,572.1 345.7,573.9 348.9,575.6 352.2,577.2 355.8,578.8 359.5,580.4 363.4,581.8 367.4,583.2 371.6,584.6 375.9,585.8 380.4,587.0 385.0,588.1 389.7,589.1 394.5,590.1 399.4,590.9 404.5,591.7 409.6,592.4 414.7,593.0 420.0,593.5 425.3,593.9 430.6,594.3 435.9,594.5 441.3,594.7 446.7,594.7 452.1,594.7 457.5,594.5 462.9,594.3 468.2,594.0 473.5,593.6 478.8,593.1 483.9,592.6 489.1,591.9 494.1,591.1 499.0,590.3 503.9,589.4 508.6,588.4 513.3,587.3 517.8,586.1 522.1,584.9 526.4,583.6 530.4,582.2 534.4,580.7 538.1,579.2 541.7,577.6 545.1,576.0 548.3,574.3"/><polyline class="wire" points="621.9,511.7 627.1,508.7 632.0,505.6 636.5,502.4 640.7,499.1 644.5,495.8 647.9,492.4 651.0,489.0 653.6,485.5 655.9,481.9 657.8,478.4 659.2,474.8 660.3,471.1 661.0,467.5 661.2,463.8 661.1,460.2 660.5,456.6 659.6,452.9 658.2,449.3 656.4,445.7 654.2,442.2 651.7,438.7 648.7,435.2 645.4,431.8 641.7,428.5 637.6,425.2 633.2,422.0 628.4,418.8 623.2,415.8 617.7,412.8 611.9,410.0 605.8,407.2 599.4,404.6 592.7,402.0 585.7,399.6 578.5,397.3 571.0,395.1 563.3,393.1 555.3,391.2 547.2,389.4 538.8,387.8 530.3,386.3 521.6,384.9 512.8,383.8 503.9,382.7 494.8,381.8 485.7,381.1 476.5,380.5 467.2,380.1 457.9,379.8 448.6,379.7 439.2,379.8 429.9,380.0 420.6,380.4 411.4,380.9 402.2,381.6 393.2,382.5 384.2,383.5 375.4,384.6 366.6,385.9 358.1,387.4 349.7,389.0 341.5,390.7 333.5,392.6 325.7,394.6 318.1,396.8 310.8,399.0 303.8,401.4 297.0,403.9 290.5,406.5 284.3,409.3 278.5,412.1 272.9,415.0 267.7,418.1 262.8,421.2 258.3,424.4 254.1,427.6 250.3,431.0 246.9,434.4 243.8,437.8 241.1,441.3 238.9,444.8 237.0,448.4 235.5,452.0 234.5,455.6 233.8,459.3 233.6,462.9 233.7,466.6 234.3,470.2 235.2,473.9 236.6,477.5 238.4,481.0 240.5,484.6 243.1,488.1 246.1,491.6 249.4,495.0 253.1,498.3 257.2,501.6 261.6,504.8 266.4,507.9 271.6,511.0 277.0,513.9 282.8,516.8 289.0,519.6 295.4,522.2 302.1,524.7 309.1,527.2 316.3,529.5 323.8,531.6 331.5,533.7 339.5,535.6 347.6,537.4 356.0,539.0 364.5,540.5 373.2,541.8 382.0,543.0 390.9,544.1 400.0,544.9 409.1,545.7 418.3,546.3 427.6,546.7 436.9,546.9 446.2,547.0 455.6,547.0 464.9,546.8 474.2,546.4 483.4,545.8 492.5,545.1 501.6,544.3 510.6,543.3 519.4,542.1 528.2,540.8 536.7,539.4 545.1,537.8 553.3,536.1 561.3,534.2 569.1,532.2 576.6,530.0 584.0,527.8 591.0,525.4 597.8,522.9 604.3,520.2 610.5,517.5 616.3,514.7 621.9,511.7"/><polyline class="wire" points="621.9,286.0 627.1,283.0 632.0,279.9 636.5,276.7 640.7,273.4 644.5,270.1 647.9,266.7 651.0,263.2 653.6,259.8 655.9,256.2 657.8,252.6 659.2,249.0 660.3,245.4 661.0,241.8 661.2,238.1 661.1,234.5 660.5,230.8 659.6,227.2 658.2,223.6 656.4,220.0 654.2,216.5 651.7,212.9 648.7,209.5 645.4,206.1 641.7,202.7 637.6,199.4 633.2,196.2 628.4,193.1 623.2,190.1 617.7,187.1 611.9,184.2 605.8,181.5 599.4,178.8 592.7,176.3 585.7,173.9 578.5,171.6 571.0,169.4 563.3,167.4 555.3,165.5 547.2,163.7 538.8,162.1 530.3,160.6 521.6,159.2 512.8,158.0 503.9,157.0 494.8,156.1 485.7,155.4 476.5,154.8 467.2,154.4 457.9,154.1 448.6,154.0 439.2,154.1 429.9,154.3 420.6,154.7 411.4,155.2 402.2,155.9 393.2,156.8 384.2,157.8 375.4,158.9 366.6,160.2 358.1,161.7 349.7,163.3 341.5,165.0 333.5,166.9 325.7,168.9 318.1,171.0 310.8,173.3 303.8,175.7 297.0,178.2 290.5,180.8 284.3,183.6 278.5,186.4 272.9,189.3 267.7,192.3 262.8,195.4 258.3,198.6 254.1,201.9 250.3,205.2 246.9,208.6 243.8,212.1 241.1,215.6 238.9,219.1 237.0,222.7 235.5,226.3 234.5,229.9 233.8,233.6 233.6,237.2 233.7,240.9 234.3,244.5 235.2,248.1 236.6,251.7 238.4,255.3 240.5,258.9 243.1,262.4 246.1,265.8 249.4,269.3 253.1,272.6 257.2,275.9 261.6,279.1 266.4,282.2 271.6,285.3 277.0,288.2 282.8,291.1 289.0,293.8 295.4,296.5 302.1,299.0 309.1,301.4 316.3,303.7 323.8,305.9 331.5,308.0 339.5,309.9 347.6,311.6 356.0,313.3 364.5,314.8 373.2,316.1 382.0,317.3 390.9,318.3 400.0,319.2 409.1,320.0 418.3,320.5 427.6,320.9 436.9,321.2 446.2,321.3 455.6,321.2 464.9,321.0 474.2,320.6 483.4,320.1 492.5,319.4 501.6,318.6 510.6,317.6 519.4,316.4 528.2,315.1 536.7,313.7 545.1,312.1 553.3,310.3 561.3,308.5 569.1,306.4 576.6,304.3 584.0,302.0 591.0,299.6 597.8,297.1 604.3,294.5 610.5,291.8 616.3,288.9 621.9,286.0"/><polyline class="wire" points="548.3,182.7 551.3,180.9 554.2,179.1 556.8,177.3 559.2,175.4 561.4,173.5 563.4,171.5 565.1,169.5 566.7,167.5 568.0,165.4 569.1,163.4 569.9,161.3 570.5,159.2 570.9,157.1 571.1,155.0 571.0,152.9 570.6,150.8 570.1,148.7 569.3,146.6 568.3,144.5 567.0,142.4 565.5,140.4 563.8,138.4 561.9,136.4 559.8,134.5 557.4,132.6 554.8,130.8 552.1,128.9 549.1,127.2 545.9,125.5 542.6,123.8 539.0,122.2 535.3,120.7 531.4,119.2 527.4,117.8 523.2,116.5 518.9,115.2 514.4,114.1 509.8,113.0 505.1,111.9 500.3,111.0 495.3,110.1 490.3,109.3 485.2,108.7 480.1,108.1 474.8,107.5 469.5,107.1 464.2,106.8 458.8,106.5 453.5,106.4 448.1,106.3 442.7,106.4 437.3,106.5 431.9,106.7 426.6,107.0 421.3,107.4 416.0,107.9 410.8,108.5 405.7,109.2 400.7,109.9 395.7,110.8 390.9,111.7 386.1,112.7 381.5,113.8 377.0,114.9 372.6,116.2 368.4,117.5 364.3,118.9 360.4,120.3 356.7,121.8 353.1,123.4 349.7,125.1 346.5,126.8 343.5,128.5 340.6,130.3 338.0,132.1 335.6,134.0 333.4,136.0 331.4,137.9 329.7,139.9 328.1,141.9 326.8,144.0 325.7,146.1 324.9,148.1 324.3,150.2 323.9,152.3 323.7,154.5 323.8,156.6 324.1,158.7 324.7,160.8 325.5,162.9 326.5,164.9 327.8,167.0 329.3,169.0 331.0,171.0 332.9,173.0 335.0,174.9 337.4,176.8 340.0,178.7 342.7,180.5 345.7,182.2 348.9,184.0 352.2,185.6 355.8,187.2 359.5,188.7 363.4,190.2 367.4,191.6 371.6,192.9 375.9,194.2 380.4,195.4 385.0,196.5 389.7,197.5 394.5,198.4 399.4,199.3 404.5,200.1 409.6,200.8 414.7,201.4 420.0,201.9 425.3,202.3 430.6,202.6 435.9,202.9 441.3,203.0 446.7,203.1 452.1,203.1 457.5,202.9 462.9,202.7 468.2,202.4 473.5,202.0 478.8,201.5 483.9,200.9 489.1,200.3 494.1,199.5 499.0,198.7 503.9,197.7 508.6,196.7 513.3,195.7 517.8,194.5 522.1,193.2 526.4,191.9 530.4,190.6 534.4,189.1 538.1,187.6 541.7,186.0 545.1,184.4 548.3,182.7"/><polyline class="wire" points="447.4,576.8 453.8,576.3 460.2,575.7 466.5,574.8 472.9,573.9 479.2,572.7 485.6,571.5 491.9,570.0 498.1,568.5 504.3,566.7 510.5,564.8 516.7,562.8 522.8,560.6 528.8,558.3 534.8,555.9 540.7,553.3 546.6,550.5 552.4,547.6 558.1,544.6 563.7,541.5 569.3,538.2 574.8,534.8 580.2,531.3 585.5,527.6 590.7,523.8 595.8,519.9 600.8,515.9 605.6,511.8 610.4,507.6 615.1,503.2 619.6,498.8 624.1,494.2 628.4,489.6 632.6,484.8 636.6,480.0 640.6,475.1 644.4,470.1 648.0,465.0 651.6,459.9 654.9,454.6 658.2,449.3 661.3,443.9 664.2,438.5 667.0,433.0 669.7,427.5 672.2,421.9 674.5,416.2 676.7,410.5 678.8,404.8 680.6,399.0 682.4,393.2 683.9,387.4 685.3,381.5 686.5,375.7 687.6,369.8 688.5,363.9 689.3,357.9 689.8,352.0 690.3,346.1 690.5,340.2 690.6,334.3 690.5,328.4 690.3,322.5 689.8,316.6 689.3,310.8 688.5,305.0 687.6,299.2 686.5,293.5 685.3,287.7 683.9,282.1 682.4,276.4 680.6,270.9 678.8,265.4 676.7,259.9 674.5,254.5 672.2,249.2 669.7,243.9 667.0,238.7 664.2,233.6 661.3,228.5 658.2,223.6 654.9,218.7 651.6,213.9 648.0,209.2 644.4,204.7 640.6,200.2 636.6,195.8 632.6,191.5 628.4,187.3 624.1,183.2 619.6,179.3 615.1,175.4 610.4,171.7 605.6,168.1 600.8,164.7 595.8,161.3 590.7,158.1 585.5,155.0 580.2,152.1 574.8,149.2 569.3,146.6 563.7,144.0 558.1,141.6 552.4,139.4 546.6,137.3 540.7,135.3 534.8,133.5 528.8,131.9 522.8,130.3 516.7,129.0 510.5,127.8 504.3,126.7 498.1,125.8 491.9,125.1 485.6,124.5 479.2,124.1 472.9,123.8 466.5,123.7 460.2,123.7 453.8,123.9 447.4,124.2"/><polyline class="wire" points="447.4,576.8 451.1,574.7 454.9,572.4 458.6,569.9 462.4,567.3 466.1,564.6 469.8,561.7 473.5,558.6 477.1,555.4 480.8,552.1 484.4,548.6 488.0,545.0 491.6,541.3 495.1,537.4 498.6,533.4 502.1,529.3 505.6,525.0 509.0,520.7 512.3,516.2 515.6,511.6 518.9,506.9 522.1,502.1 525.2,497.1 528.4,492.1 531.4,487.0 534.4,481.8 537.3,476.5 540.2,471.1 543.0,465.7 545.7,460.1 548.4,454.5 551.0,448.8 553.5,443.1 556.0,437.2 558.4,431.4 560.7,425.4 562.9,419.5 565.0,413.4 567.1,407.4 569.1,401.3 571.0,395.1 572.8,389.0 574.5,382.8 576.2,376.6 577.7,370.3 579.2,364.1 580.6,357.8 581.9,351.6 583.1,345.3 584.2,339.1 585.2,332.8 586.1,326.6 586.9,320.4 587.6,314.2 588.3,308.0 588.8,301.9 589.2,295.8 589.6,289.7 589.8,283.7 590.0,277.7 590.0,271.8 590.0,265.9 589.8,260.1 589.6,254.3 589.2,248.6 588.8,243.0 588.3,237.5 587.6,232.0 586.9,226.6 586.1,221.3 585.2,216.1 584.2,210.9 583.1,205.9 581.9,201.0 580.6,196.1 579.2,191.4 577.7,186.8 576.2,182.2 574.5,177.9 572.8,173.6 571.0,169.4 569.1,165.4 567.1,161.5 565.0,157.7 562.9,154.0 560.7,150.5 558.4,147.1 556.0,143.9 553.5,140.8 551.0,137.8 548.4,135.0 545.7,132.3 543.0,129.8 540.2,127.5 537.3,125.2 534.4,123.2 531.4,121.3 528.4,119.5 525.2,117.9 522.1,116.5 518.9,115.2 515.6,114.1 512.3,113.2 509.0,112.4 505.6,111.8 502.1,111.3 498.6,111.0 495.1,110.9 491.6,111.0 488.0,111.2 484.4,111.5 480.8,112.1 477.1,112.8 473.5,113.6 469.8,114.7 466.1,115.9 462.4,117.2 458.6,118.7 454.9,120.4 451.1,122.2 447.4,124.2"/><polyline class="wire" points="447.4,576.8 446.3,574.2 445.2,571.5 444.1,568.6 443.0,565.6 442.0,562.4 440.9,559.1 439.8,555.6 438.7,552.0 437.7,548.3 436.6,544.4 435.6,540.3 434.5,536.2 433.5,531.9 432.5,527.5 431.5,523.0 430.5,518.3 429.5,513.6 428.5,508.7 427.5,503.7 426.6,498.7 425.6,493.5 424.7,488.2 423.8,482.8 422.9,477.4 422.1,471.8 421.2,466.2 420.4,460.5 419.6,454.7 418.8,448.8 418.0,442.9 417.2,436.9 416.5,430.9 415.8,424.8 415.1,418.6 414.4,412.4 413.8,406.2 413.1,399.9 412.5,393.6 412.0,387.3 411.4,380.9 410.9,374.6 410.4,368.2 409.9,361.8 409.4,355.4 409.0,349.0 408.6,342.5 408.2,336.1 407.9,329.7 407.6,323.4 407.3,317.0 407.0,310.7 406.8,304.4 406.6,298.1 406.4,291.8 406.2,285.6 406.1,279.5 406.0,273.4 405.9,267.3 405.9,261.3 405.9,255.4 405.9,249.5 405.9,243.7 406.0,238.0 406.1,232.3 406.2,226.8 406.4,221.3 406.6,215.9 406.8,210.6 407.0,205.4 407.3,200.2 407.6,195.2 407.9,190.3 408.2,185.5 408.6,180.8 409.0,176.2 409.4,171.8 409.9,167.5 410.4,163.2 410.9,159.2 411.4,155.2 412.0,151.4 412.5,147.7 413.1,144.2 413.8,140.8 414.4,137.5 415.1,134.4 415.8,131.4 416.5,128.6 417.2,125.9 418.0,123.4 418.8,121.0 419.6,118.8 420.4,116.8 421.2,114.9 422.1,113.2 422.9,111.6 423.8,110.2 424.7,109.0 425.6,107.9 426.6,107.0 427.5,106.3 428.5,105.7 429.5,105.3 430.5,105.1 431.5,105.1 432.5,105.2 433.5,105.4 434.5,105.9 435.6,106.5 436.6,107.3 437.7,108.2 438.7,109.4 439.8,110.7 440.9,112.1 442.0,113.7 443.0,115.5 444.1,117.4 445.2,119.5 446.3,121.8 447.4,124.2"/><polyline class="wire" points="447.4,576.8 442.1,575.3 436.8,573.6 431.5,571.7 426.3,569.7 421.0,567.6 415.8,565.3 410.6,562.8 405.4,560.2 400.2,557.5 395.1,554.6 390.0,551.6 385.0,548.4 380.0,545.1 375.0,541.7 370.1,538.1 365.3,534.4 360.5,530.6 355.8,526.6 351.1,522.6 346.5,518.4 341.9,514.1 337.5,509.7 333.1,505.2 328.8,500.5 324.6,495.8 320.4,491.0 316.4,486.1 312.4,481.1 308.6,475.9 304.8,470.8 301.1,465.5 297.6,460.2 294.1,454.7 290.7,449.2 287.5,443.7 284.3,438.1 281.3,432.4 278.4,426.7 275.6,420.9 272.9,415.0 270.3,409.2 267.9,403.3 265.6,397.3 263.4,391.3 261.3,385.3 259.4,379.3 257.5,373.2 255.9,367.2 254.3,361.1 252.9,355.0 251.6,348.9 250.4,342.9 249.4,336.8 248.5,330.7 247.8,324.7 247.2,318.6 246.7,312.6 246.3,306.6 246.1,300.7 246.1,294.7 246.1,288.9 246.3,283.0 246.7,277.2 247.2,271.5 247.8,265.8 248.5,260.1 249.4,254.6 250.4,249.1 251.6,243.6 252.9,238.2 254.3,233.0 255.9,227.7 257.5,222.6 259.4,217.6 261.3,212.6 263.4,207.8 265.6,203.0 267.9,198.3 270.3,193.8 272.9,189.3 275.6,185.0 278.4,180.7 281.3,176.6 284.3,172.6 287.5,168.7 290.7,165.0 294.1,161.4 297.6,157.9 301.1,154.5 304.8,151.3 308.6,148.2 312.4,145.2 316.4,142.4 320.4,139.7 324.6,137.2 328.8,134.8 333.1,132.6 337.5,130.5 341.9,128.5 346.5,126.8 351.1,125.1 355.8,123.6 360.5,122.3 365.3,121.2 370.1,120.2 375.0,119.3 380.0,118.6 385.0,118.1 390.0,117.7 395.1,117.5 400.2,117.5 405.4,117.6 410.6,117.8 415.8,118.3 421.0,118.9 426.3,119.6 431.5,120.5 436.8,121.6 442.1,122.8 447.4,124.2"/><polyline class="wire" points="447.4,576.8 441.0,577.2 434.6,577.4 428.3,577.4 421.9,577.3 415.5,577.0 409.2,576.6 402.9,576.0 396.7,575.2 390.4,574.3 384.3,573.3 378.1,572.1 372.0,570.7 366.0,569.2 360.0,567.5 354.1,565.7 348.2,563.8 342.4,561.7 336.7,559.4 331.1,557.0 325.5,554.5 320.0,551.8 314.6,549.0 309.3,546.0 304.1,543.0 299.0,539.7 294.0,536.4 289.1,532.9 284.4,529.3 279.7,525.6 275.1,521.8 270.7,517.8 266.4,513.8 262.2,509.6 258.1,505.3 254.2,500.9 250.4,496.4 246.8,491.8 243.2,487.1 239.8,482.3 236.6,477.5 233.5,472.5 230.6,467.5 227.8,462.4 225.1,457.2 222.6,451.9 220.3,446.6 218.1,441.2 216.0,435.7 214.2,430.2 212.4,424.6 210.9,419.0 209.5,413.3 208.2,407.6 207.2,401.9 206.3,396.1 205.5,390.3 204.9,384.4 204.5,378.5 204.3,372.7 204.2,366.8 204.3,360.9 204.5,354.9 204.9,349.0 205.5,343.1 206.3,337.2 207.2,331.3 208.2,325.4 209.5,319.5 210.9,313.7 212.4,307.8 214.2,302.0 216.0,296.3 218.1,290.5 220.3,284.8 222.6,279.2 225.1,273.6 227.8,268.0 230.6,262.5 233.5,257.1 236.6,251.7 239.8,246.4 243.2,241.2 246.8,236.0 250.4,231.0 254.2,226.0 258.1,221.0 262.2,216.2 266.4,211.5 270.7,206.8 275.1,202.3 279.7,197.8 284.4,193.5 289.1,189.3 294.0,185.1 299.0,181.1 304.1,177.2 309.3,173.5 314.6,169.8 320.0,166.3 325.5,162.9 331.1,159.6 336.7,156.4 342.4,153.4 348.2,150.5 354.1,147.8 360.0,145.2 366.0,142.7 372.0,140.4 378.1,138.2 384.3,136.2 390.4,134.3 396.7,132.6 402.9,131.0 409.2,129.6 415.5,128.3 421.9,127.2 428.3,126.2 434.6,125.4 441.0,124.7 447.4,124.2"/><polyline class="wire" points="447.4,576.8 443.6,578.8 439.9,580.6 436.2,582.3 432.4,583.8 428.7,585.2 425.0,586.4 421.3,587.4 417.7,588.3 414.0,589.0 410.4,589.5 406.8,589.9 403.2,590.1 399.7,590.1 396.1,590.0 392.7,589.7 389.2,589.3 385.8,588.6 382.5,587.9 379.2,586.9 375.9,585.8 372.7,584.5 369.5,583.1 366.4,581.5 363.4,579.8 360.4,577.9 357.5,575.8 354.6,573.6 351.8,571.2 349.1,568.7 346.4,566.0 343.8,563.2 341.3,560.3 338.8,557.2 336.4,553.9 334.1,550.5 331.9,547.0 329.7,543.4 327.7,539.6 325.7,535.7 323.8,531.6 322.0,527.5 320.2,523.2 318.6,518.8 317.0,514.3 315.6,509.7 314.2,504.9 312.9,500.1 311.7,495.2 310.6,490.1 309.6,485.0 308.7,479.8 307.9,474.5 307.2,469.1 306.5,463.6 306.0,458.0 305.6,452.4 305.2,446.7 305.0,441.0 304.8,435.2 304.8,429.3 304.8,423.3 305.0,417.4 305.2,411.3 305.6,405.3 306.0,399.2 306.5,393.0 307.2,386.9 307.9,380.7 308.7,374.5 309.6,368.2 310.6,362.0 311.7,355.7 312.9,349.5 314.2,343.2 315.6,337.0 317.0,330.7 318.6,324.5 320.2,318.3 322.0,312.1 323.8,305.9 325.7,299.8 327.7,293.7 329.7,287.6 331.9,281.6 334.1,275.6 336.4,269.7 338.8,263.8 341.3,258.0 343.8,252.2 346.4,246.6 349.1,240.9 351.8,235.4 354.6,229.9 357.5,224.6 360.4,219.3 363.4,214.1 366.4,208.9 369.5,203.9 372.7,199.0 375.9,194.2 379.2,189.5 382.5,184.9 385.8,180.4 389.2,176.0 392.7,171.8 396.1,167.7 399.7,163.7 403.2,159.8 406.8,156.0 410.4,152.4 414.0,149.0 417.7,145.6 421.3,142.4 425.0,139.4 428.7,136.5 432.4,133.7 436.2,131.1 439.9,128.7 443.6,126.4 447.4,124.2"/><polyline class="wire" points="447.4,576.8 448.5,579.2 449.6,581.5 450.7,583.6 451.7,585.5 452.8,587.3 453.9,588.9 455.0,590.4 456.1,591.7 457.1,592.8 458.2,593.8 459.2,594.5 460.3,595.2 461.3,595.6 462.3,595.9 463.3,596.0 464.3,595.9 465.3,595.7 466.3,595.3 467.3,594.8 468.2,594.0 469.1,593.1 470.1,592.1 471.0,590.8 471.9,589.4 472.7,587.9 473.6,586.1 474.4,584.3 475.2,582.2 476.0,580.0 476.8,577.6 477.6,575.1 478.3,572.5 479.0,569.6 479.7,566.7 480.4,563.6 481.0,560.3 481.7,556.9 482.3,553.3 482.8,549.7 483.4,545.8 483.9,541.9 484.4,537.8 484.9,533.6 485.3,529.3 485.8,524.8 486.2,520.2 486.5,515.5 486.9,510.7 487.2,505.8 487.5,500.8 487.8,495.7 488.0,490.5 488.2,485.2 488.4,479.8 488.6,474.3 488.7,468.7 488.8,463.1 488.9,457.3 488.9,451.5 488.9,445.7 488.9,439.7 488.9,433.7 488.8,427.7 488.7,421.6 488.6,415.4 488.4,409.2 488.2,403.0 488.0,396.7 487.8,390.4 487.5,384.0 487.2,377.7 486.9,371.3 486.5,364.9 486.2,358.5 485.8,352.1 485.3,345.7 484.9,339.3 484.4,332.9 483.9,326.5 483.4,320.1 482.8,313.8 482.3,307.4 481.7,301.1 481.0,294.9 480.4,288.6 479.7,282.4 479.0,276.3 478.3,270.2 477.6,264.1 476.8,258.2 476.0,252.2 475.2,246.4 474.4,240.6 473.6,234.9 472.7,229.2 471.9,223.7 471.0,218.2 470.1,212.9 469.1,207.6 468.2,202.4 467.3,197.3 466.3,192.3 465.3,187.5 464.3,182.7 463.3,178.1 462.3,173.5 461.3,169.1 460.3,164.9 459.2,160.7 458.2,156.7 457.1,152.8 456.1,149.0 455.0,145.4 453.9,142.0 452.8,138.6 451.7,135.5 450.7,132.4 449.6,129.5 448.5,126.8 447.4,124.2"/><polyline class="equator" points="648.7,406.3 654.7,402.8 660.4,399.2 665.6,395.6 670.4,391.8 674.8,387.9 678.8,384.0 682.3,380.0 685.4,376.0 688.0,371.9 690.1,367.8 691.8,363.6 693.0,359.5 693.8,355.3 694.1,351.1 693.9,346.8 693.3,342.6 692.2,338.5 690.6,334.3 688.5,330.2 686.0,326.1 683.1,322.0 679.7,318.0 675.8,314.1 671.6,310.2 666.8,306.4 661.7,302.7 656.2,299.1 650.3,295.6 643.9,292.2 637.2,288.9 630.2,285.7 622.8,282.7 615.1,279.7 607.0,276.9 598.6,274.3 590.0,271.8 581.1,269.4 571.9,267.2 562.5,265.2 552.9,263.3 543.0,261.6 533.0,260.0 522.9,258.6 512.5,257.4 502.1,256.4 491.6,255.6 480.9,254.9 470.2,254.4 459.5,254.1 448.7,254.0 438.0,254.1 427.2,254.3 416.5,254.8 405.9,255.4 395.3,256.2 384.8,257.2 374.5,258.3 364.3,259.7 354.2,261.2 344.3,262.8 334.7,264.7 325.2,266.7 316.0,268.9 307.0,271.2 298.3,273.6 289.8,276.3 281.7,279.0 273.9,281.9 266.4,284.9 259.3,288.1 252.5,291.4 246.1,294.7 240.0,298.2 234.4,301.8 229.2,305.5 224.4,309.3 220.0,313.1 216.0,317.0 212.5,321.0 209.4,325.0 206.8,329.1 204.7,333.3 203.0,337.4 201.7,341.6 201.0,345.8 200.7,350.0 200.9,354.2 201.5,358.4 202.6,362.6 204.2,366.8 206.2,370.9 208.7,375.0 211.7,379.0 215.1,383.0 219.0,387.0 223.2,390.8 227.9,394.6 233.1,398.3 238.6,401.9 244.5,405.4 250.9,408.9 257.5,412.2 264.6,415.3 272.0,418.4 279.7,421.3 287.8,424.1 296.1,426.8 304.8,429.3 313.7,431.6 322.9,433.8 332.3,435.9 341.9,437.8 351.7,439.5 361.8,441.0 371.9,442.4 382.2,443.6 392.7,444.6 403.2,445.5 413.9,446.1 424.6,446.6 435.3,446.9 446.1,447.0 456.8,447.0 467.6,446.7 478.3,446.3 488.9,445.7 499.5,444.9 510.0,443.9 520.3,442.7 530.5,441.4 540.6,439.9 550.4,438.2 560.1,436.4 569.6,434.4 578.8,432.2 587.8,429.9 596.5,427.4 605.0,424.8 613.1,422.0 620.9,419.1 628.4,416.1 635.5,413.0 642.3,409.7 648.7,406.3"/><polyline class="meridian" points="447.4,576.8 452.7,578.2 458.0,579.4 463.2,580.5 468.5,581.4 473.8,582.2 479.0,582.8 484.2,583.2 489.4,583.5 494.5,583.6 499.7,583.5 504.8,583.3 509.8,583.0 514.8,582.4 519.8,581.7 524.7,580.9 529.5,579.9 534.3,578.7 539.0,577.4 543.7,575.9 548.3,574.3 552.8,572.5 557.3,570.6 561.7,568.5 566.0,566.2 570.2,563.9 574.3,561.3 578.4,558.7 582.4,555.8 586.2,552.9 590.0,549.8 593.7,546.5 597.2,543.2 600.7,539.7 604.1,536.1 607.3,532.3 610.5,528.4 613.5,524.4 616.4,520.3 619.2,516.1 621.9,511.7 624.5,507.3 626.9,502.7 629.2,498.1 631.4,493.3 633.5,488.4 635.4,483.5 637.2,478.4 638.9,473.3 640.5,468.1 641.9,462.8 643.2,457.4 644.3,452.0 645.4,446.5 646.3,440.9 647.0,435.3 647.6,429.6 648.1,423.8 648.4,418.0 648.7,412.2 648.7,406.3 648.7,400.4 648.4,394.4 648.1,388.4 647.6,382.4 647.0,376.4 646.3,370.3 645.4,364.3 644.3,358.2 643.2,352.1 641.9,346.0 640.5,340.0 638.9,333.9 637.2,327.8 635.4,321.8 633.5,315.7 631.4,309.7 629.2,303.7 626.9,297.8 624.5,291.9 621.9,286.0 619.2,280.2 616.4,274.4 613.5,268.7 610.5,263.0 607.3,257.4 604.1,251.8 600.7,246.3 597.2,240.9 593.7,235.6 590.0,230.3 586.2,225.1 582.4,220.0 578.4,215.0 574.3,210.1 570.2,205.2 566.0,200.5 561.7,195.9 557.3,191.4 552.8,187.0 548.3,182.7 543.7,178.5 539.0,174.4 534.3,170.5 529.5,166.7 524.7,163.0 519.8,159.4 514.8,156.0 509.8,152.7 504.8,149.5 499.7,146.5 494.5,143.6 489.4,140.8 484.2,138.2 479.0,135.8 473.8,133.5 468.5,131.3 463.2,129.3 458.0,127.5 452.7,125.8 447.4,124.2"/><polyline class="meridian" points="447.4,576.8 453.9,576.8 460.3,576.5 466.8,576.2 473.3,575.6 479.7,574.9 486.1,574.1 492.5,573.1 498.9,572.0 505.2,570.7 511.4,569.2 517.7,567.6 523.9,565.8 530.0,563.9 536.1,561.9 542.1,559.7 548.0,557.4 553.9,554.9 559.7,552.3 565.4,549.5 571.1,546.6 576.6,543.6 582.1,540.4 587.5,537.1 592.7,533.7 597.9,530.2 603.0,526.5 607.9,522.7 612.8,518.8 617.5,514.8 622.1,510.6 626.6,506.4 631.0,502.1 635.3,497.6 639.4,493.1 643.4,488.4 647.2,483.7 650.9,478.8 654.5,473.9 657.9,468.9 661.2,463.8 664.4,458.7 667.4,453.5 670.2,448.2 672.9,442.8 675.4,437.4 677.8,431.9 680.0,426.3 682.1,420.7 684.0,415.1 685.8,409.4 687.3,403.7 688.7,397.9 690.0,392.1 691.1,386.3 692.0,380.5 692.8,374.6 693.3,368.7 693.8,362.9 694.0,357.0 694.1,351.1 694.0,345.1 693.8,339.2 693.3,333.4 692.8,327.5 692.0,321.6 691.1,315.8 690.0,309.9 688.7,304.1 687.3,298.4 685.8,292.6 684.0,287.0 682.1,281.3 680.0,275.7 677.8,270.2 675.4,264.7 672.9,259.2 670.2,253.8 667.4,248.5 664.4,243.3 661.2,238.1 657.9,233.0 654.5,228.0 650.9,223.1 647.2,218.2 643.4,213.5 639.4,208.8 635.3,204.2 631.0,199.8 626.6,195.4 622.1,191.2 617.5,187.0 612.8,183.0 607.9,179.0 603.0,175.2 597.9,171.5 592.7,168.0 587.5,164.5 582.1,161.2 576.6,158.0 571.1,155.0 565.4,152.1 559.7,149.3 553.9,146.6 548.0,144.1 542.1,141.8 536.1,139.5 530.0,137.5 523.9,135.5 517.7,133.8 511.4,132.1 505.2,130.6 498.9,129.3 492.5,128.1 486.1,127.1 479.7,126.2 473.3,125.5 466.8,125.0 460.3,124.6 453.9,124.3 447.4,124.2"/><line class="axis" x1="447.4" y1="350.5" x2="739.3" y2="431.4" marker-end="url(#arrow)"/><text class="label" x="747.3" y="435.4">X</text><line class="axis" x1="447.4" y1="350.5" x2="654.2" y2="236.3" marker-end="url(#arrow)"/><text class="label" x="662.2" y="240.3">Y</text><line class="axis" x1="447.4" y1="350.5" x2="447.4" y2="44.0" marker-end="url(#arrow)"/><text class="label" x="455.4" y="48.0">Z</text><polygon class="plane" points="651.4,248.5 652.5,167.4 535.4,88.3 534.3,169.4"/><line class="helper" x1="447.4" y1="350.5" x2="593.4" y2="168.4"/><line class="helper" x1="447.4" y1="350.5" x2="571.9" y2="78.6"/><line class="vector" x1="593.4" y1="168.4" x2="571.9" y2="78.6" marker-end="url(#arrow)"/><line class="east" x1="593.4" y1="168.4" x2="593.8" y2="135.6" marker-end="url(#arrow)"/><line class="north" x1="593.8" y1="135.6" x2="550.0" y2="106.0" marker-end="url(#arrow)"/><line class="normal" x1="550.0" y1="106.0" x2="571.9" y2="78.6" marker-end="url(#arrow)"/><line class="east" x1="593.4" y1="168.4" x2="594.0" y2="126.0" marker-end="url(#arrow)"/><line class="north" x1="593.4" y1="168.4" x2="513.7" y2="114.6" marker-end="url(#arrow)"/><line class="normal" x1="593.4" y1="168.4" x2="642.9" y2="106.2" marker-end="url(#arrow)"/><circle class="surface" cx="593.4" cy="168.4" r="6.5"/><circle class="surface" cx="593.8" cy="135.6" r="4.8"/><circle class="surface" cx="550.0" cy="106.0" r="4.8"/><circle class="point" cx="571.9" cy="78.6" r="7.0"/><text class="orange" x="603.4" y="184.4">O_L(φ₀,λ₀,h₀)</text><text class="teal" x="581.9" y="70.6">P(φ,λ,h)</text><text class="indigo" x="595.1" y="117.3">Δr=P_ECEF-O_ECEF</text><text class="teal" x="604.0" y="120.0">E east</text><text class="indigo" x="521.7" y="109.6">N north</text><text class="orange" x="652.9" y="100.2">U up</text><text class="small" x="558.0" y="122.0">投影到本地三轴</text><text class="formula" x="44.0" y="568.0">[E,N,U]^T = [ê^T; n̂^T; û^T] · Δr</text><text class="formula" x="44.0" y="592.0">ê=(-sinλ₀, cosλ₀, 0)，û=(cosφ₀cosλ₀, cosφ₀sinλ₀, sinφ₀)，n̂=û×ê</text>
</svg>
